<svg width="26" height="26" viewBox="0 0 26 26" fill="none" xmlns="http://www.w3.org/2000/svg">
<path d="M5.23253 8.88875C5.11932 9.0018 5.02952 9.13605 4.96824 9.28383C4.90697 9.43161 4.87543 9.59002 4.87543 9.75C4.87543 9.90998 4.90697 10.0684 4.96824 10.2162C5.02952 10.364 5.11932 10.4982 5.23253 10.6113L12.1388 17.5175C12.2518 17.6307 12.3861 17.7205 12.5339 17.7818C12.6816 17.8431 12.84 17.8746 13 17.8746C13.16 17.8746 13.3184 17.8431 13.4662 17.7818C13.614 17.7205 13.7482 17.6307 13.8613 17.5175L20.7675 10.6113C20.8806 10.4982 20.9703 10.3639 21.0316 10.2161C21.0928 10.0683 21.1243 9.90995 21.1243 9.75C21.1243 9.59005 21.0928 9.43167 21.0316 9.2839C20.9703 9.13612 20.8806 9.00185 20.7675 8.88875C20.6544 8.77565 20.5202 8.68593 20.3724 8.62472C20.2246 8.56351 20.0662 8.53201 19.9063 8.53201C19.7463 8.53201 19.5879 8.56351 19.4402 8.62472C19.2924 8.68593 19.1581 8.77565 19.045 8.88875L13 14.9321L6.95503 8.88875C6.84199 8.77555 6.70773 8.68574 6.55995 8.62446C6.41217 8.56319 6.25376 8.53165 6.09378 8.53165C5.9338 8.53165 5.77539 8.56319 5.6276 8.62446C5.47982 8.68574 5.34557 8.77555 5.23253 8.88875Z" fill="#17171B"/>
</svg>
