<svg width="21" height="21" viewBox="0 0 21 21" fill="none" xmlns="http://www.w3.org/2000/svg">
<path d="M8.18406 9.78999C7.99576 9.60169 7.74036 9.4959 7.47406 9.4959C7.20776 9.4959 6.95237 9.60169 6.76406 9.78999C6.57576 9.9783 6.46997 10.2337 6.46997 10.5C6.46997 10.7663 6.57576 11.0217 6.76406 11.21L9.76406 14.21C9.8575 14.3027 9.96832 14.376 10.0902 14.4258C10.212 14.4755 10.3425 14.5008 10.4741 14.5C10.611 14.4957 10.7455 14.4632 10.8694 14.4047C10.9932 14.3463 11.1037 14.263 11.1941 14.16L18.1941 6.15999C18.3557 5.95932 18.4336 5.704 18.4116 5.44728C18.3896 5.19055 18.2693 4.95223 18.0759 4.782C17.8825 4.61178 17.6308 4.52279 17.3733 4.5336C17.1159 4.5444 16.8726 4.65416 16.6941 4.83999L10.4741 12.04L8.18406 9.78999Z" fill="#17171B"/>
<path d="M19.4741 9.5C19.2088 9.5 18.9545 9.60536 18.7669 9.79289C18.5794 9.98043 18.4741 10.2348 18.4741 10.5C18.4741 12.6217 17.6312 14.6566 16.1309 16.1569C14.6306 17.6571 12.5958 18.5 10.4741 18.5C8.89414 18.4993 7.34982 18.0308 6.03582 17.1535C4.72182 16.2763 3.69698 15.0297 3.09054 13.5708C2.48409 12.1119 2.3232 10.5061 2.62814 8.95589C2.93309 7.40569 3.69022 5.98048 4.80406 4.86C5.54476 4.10938 6.42774 3.51404 7.40131 3.10881C8.37489 2.70358 9.41952 2.49661 10.4741 2.5C11.1135 2.504 11.7506 2.57777 12.3741 2.72C12.5045 2.76035 12.6419 2.77356 12.7776 2.7588C12.9134 2.74404 13.0447 2.70163 13.1635 2.63418C13.2822 2.56673 13.3859 2.47567 13.4681 2.36662C13.5503 2.25757 13.6093 2.13284 13.6414 2.00011C13.6736 1.86739 13.6782 1.72948 13.655 1.5949C13.6319 1.46032 13.5814 1.33191 13.5066 1.21759C13.4319 1.10327 13.3346 1.00547 13.2206 0.930211C13.1067 0.854952 12.9785 0.803831 12.8441 0.78C12.0672 0.597243 11.2721 0.503307 10.4741 0.5C8.49839 0.510264 6.57004 1.10552 4.93235 2.21065C3.29466 3.31578 2.02103 4.88126 1.27218 6.70953C0.523323 8.5378 0.332815 10.5469 0.724691 12.4834C1.11657 14.4198 2.07327 16.1968 3.47406 17.59C5.33075 19.4475 7.84771 20.4939 10.4741 20.5C13.1262 20.5 15.6698 19.4464 17.5451 17.5711C19.4205 15.6957 20.4741 13.1522 20.4741 10.5C20.4741 10.2348 20.3687 9.98043 20.1812 9.79289C19.9936 9.60536 19.7393 9.5 19.4741 9.5Z" fill="#17171B"/>
</svg>
